<mxfile host="Electron" modified="2024-05-22T23:55:12.155Z" agent="Mozilla/5.0 (Windows NT 10.0; Win64; x64) AppleWebKit/537.36 (KHTML, like Gecko) draw.io/24.4.6 Chrome/124.0.6367.207 Electron/30.0.6 Safari/537.36" etag="NjmmjFWwCO0CFHYgDABm" version="24.4.6" type="device">
  <diagram id="C5RBs43oDa-KdzZeNtuy" name="Page-1">
    <mxGraphModel dx="3190" dy="2549" grid="1" gridSize="10" guides="1" tooltips="1" connect="1" arrows="1" fold="1" page="1" pageScale="1" pageWidth="827" pageHeight="1169" background="#202C2E" math="0" shadow="0">
      <root>
        <mxCell id="WIyWlLk6GJQsqaUBKTNV-0" />
        <mxCell id="WIyWlLk6GJQsqaUBKTNV-1" parent="WIyWlLk6GJQsqaUBKTNV-0" />
        <mxCell id="WIyWlLk6GJQsqaUBKTNV-2" value="" style="rounded=0;html=1;jettySize=auto;orthogonalLoop=1;fontSize=11;endArrow=block;endFill=1;endSize=8;strokeWidth=1;shadow=0;labelBackgroundColor=none;edgeStyle=orthogonalEdgeStyle;fillColor=none;" parent="WIyWlLk6GJQsqaUBKTNV-1" source="WIyWlLk6GJQsqaUBKTNV-3" target="WIyWlLk6GJQsqaUBKTNV-6" edge="1">
          <mxGeometry relative="1" as="geometry">
            <mxPoint x="220" y="180" as="targetPoint" />
          </mxGeometry>
        </mxCell>
        <mxCell id="WIyWlLk6GJQsqaUBKTNV-3" value="Клиент хочет оставить заявку" style="rounded=1;whiteSpace=wrap;html=1;fontSize=12;glass=0;strokeWidth=1;shadow=0;fillColor=none;" parent="WIyWlLk6GJQsqaUBKTNV-1" vertex="1">
          <mxGeometry x="160" y="90" width="120" height="40" as="geometry" />
        </mxCell>
        <mxCell id="WIyWlLk6GJQsqaUBKTNV-4" value="Да" style="rounded=0;html=1;jettySize=auto;orthogonalLoop=1;fontSize=11;endArrow=block;endFill=1;endSize=8;strokeWidth=1;shadow=0;labelBackgroundColor=none;edgeStyle=orthogonalEdgeStyle;fillColor=none;" parent="WIyWlLk6GJQsqaUBKTNV-1" source="WIyWlLk6GJQsqaUBKTNV-6" target="TQRET4Z9Z2pxtcugi2uB-5" edge="1">
          <mxGeometry x="-0.7778" y="20" relative="1" as="geometry">
            <mxPoint as="offset" />
          </mxGeometry>
        </mxCell>
        <mxCell id="WIyWlLk6GJQsqaUBKTNV-5" value="Нет" style="edgeStyle=orthogonalEdgeStyle;rounded=0;html=1;jettySize=auto;orthogonalLoop=1;fontSize=11;endArrow=block;endFill=1;endSize=8;strokeWidth=1;shadow=0;labelBackgroundColor=none;fillColor=none;" parent="WIyWlLk6GJQsqaUBKTNV-1" source="WIyWlLk6GJQsqaUBKTNV-6" target="WIyWlLk6GJQsqaUBKTNV-7" edge="1">
          <mxGeometry x="-0.8909" y="10" relative="1" as="geometry">
            <mxPoint as="offset" />
            <Array as="points">
              <mxPoint x="380" y="220" />
            </Array>
          </mxGeometry>
        </mxCell>
        <mxCell id="WIyWlLk6GJQsqaUBKTNV-6" value="Клиент зарегистрирован?" style="rhombus;whiteSpace=wrap;html=1;shadow=0;fontFamily=Helvetica;fontSize=12;align=center;strokeWidth=1;spacing=6;spacingTop=-4;fillColor=none;" parent="WIyWlLk6GJQsqaUBKTNV-1" vertex="1">
          <mxGeometry x="147.75" y="180" width="145" height="80" as="geometry" />
        </mxCell>
        <mxCell id="WIyWlLk6GJQsqaUBKTNV-7" value="Администратор регистрирует клиента" style="rounded=1;whiteSpace=wrap;html=1;fontSize=12;glass=0;strokeWidth=1;shadow=0;fillColor=none;" parent="WIyWlLk6GJQsqaUBKTNV-1" vertex="1">
          <mxGeometry x="320" y="260" width="130" height="40" as="geometry" />
        </mxCell>
        <mxCell id="TQRET4Z9Z2pxtcugi2uB-0" value="Начало" style="strokeWidth=2;html=1;shape=mxgraph.flowchart.terminator;whiteSpace=wrap;fillColor=none;" parent="WIyWlLk6GJQsqaUBKTNV-1" vertex="1">
          <mxGeometry x="175" width="90" height="40" as="geometry" />
        </mxCell>
        <mxCell id="TQRET4Z9Z2pxtcugi2uB-1" value="Конец" style="strokeWidth=2;html=1;shape=mxgraph.flowchart.terminator;whiteSpace=wrap;fillColor=none;" parent="WIyWlLk6GJQsqaUBKTNV-1" vertex="1">
          <mxGeometry x="175.38" y="1140" width="89.75" height="40" as="geometry" />
        </mxCell>
        <mxCell id="TQRET4Z9Z2pxtcugi2uB-11" style="edgeStyle=orthogonalEdgeStyle;rounded=0;orthogonalLoop=1;jettySize=auto;html=1;exitX=0.5;exitY=1;exitDx=0;exitDy=0;fillColor=none;" parent="WIyWlLk6GJQsqaUBKTNV-1" source="TQRET4Z9Z2pxtcugi2uB-5" target="TQRET4Z9Z2pxtcugi2uB-10" edge="1">
          <mxGeometry relative="1" as="geometry" />
        </mxCell>
        <mxCell id="TQRET4Z9Z2pxtcugi2uB-5" value="Клиент авторизовывается в систему" style="rounded=1;whiteSpace=wrap;html=1;fontSize=12;glass=0;strokeWidth=1;shadow=0;fillColor=none;" parent="WIyWlLk6GJQsqaUBKTNV-1" vertex="1">
          <mxGeometry x="160" y="330" width="120" height="50" as="geometry" />
        </mxCell>
        <mxCell id="TQRET4Z9Z2pxtcugi2uB-6" value="" style="rounded=0;html=1;jettySize=auto;orthogonalLoop=1;fontSize=11;endArrow=block;endFill=1;endSize=8;strokeWidth=1;shadow=0;labelBackgroundColor=none;edgeStyle=orthogonalEdgeStyle;fillColor=none;" parent="WIyWlLk6GJQsqaUBKTNV-1" source="TQRET4Z9Z2pxtcugi2uB-0" target="WIyWlLk6GJQsqaUBKTNV-3" edge="1">
          <mxGeometry relative="1" as="geometry">
            <mxPoint x="230" y="140" as="sourcePoint" />
            <mxPoint x="230" y="190" as="targetPoint" />
          </mxGeometry>
        </mxCell>
        <mxCell id="TQRET4Z9Z2pxtcugi2uB-10" value="Клиент созаёт новую заявку" style="rounded=1;whiteSpace=wrap;html=1;fontSize=12;glass=0;strokeWidth=1;shadow=0;fillColor=none;" parent="WIyWlLk6GJQsqaUBKTNV-1" vertex="1">
          <mxGeometry x="160.25" y="410" width="120" height="50" as="geometry" />
        </mxCell>
        <mxCell id="TQRET4Z9Z2pxtcugi2uB-12" value="Оператор регистрирует заявку" style="rounded=1;whiteSpace=wrap;html=1;fontSize=12;glass=0;strokeWidth=1;shadow=0;fillColor=none;" parent="WIyWlLk6GJQsqaUBKTNV-1" vertex="1">
          <mxGeometry x="160.25" y="490" width="120" height="50" as="geometry" />
        </mxCell>
        <mxCell id="QQ_SFKu2IOKHyf6cz1e6-4" style="edgeStyle=orthogonalEdgeStyle;rounded=0;orthogonalLoop=1;jettySize=auto;html=1;exitX=0.5;exitY=1;exitDx=0;exitDy=0;fillColor=none;" parent="WIyWlLk6GJQsqaUBKTNV-1" source="TQRET4Z9Z2pxtcugi2uB-13" target="TQRET4Z9Z2pxtcugi2uB-22" edge="1">
          <mxGeometry relative="1" as="geometry" />
        </mxCell>
        <mxCell id="TQRET4Z9Z2pxtcugi2uB-13" value="Обработка оператором заявки" style="rounded=1;whiteSpace=wrap;html=1;fontSize=12;glass=0;strokeWidth=1;shadow=0;fillColor=none;" parent="WIyWlLk6GJQsqaUBKTNV-1" vertex="1">
          <mxGeometry x="155.25" y="570" width="130" height="65" as="geometry" />
        </mxCell>
        <mxCell id="TQRET4Z9Z2pxtcugi2uB-22" value="Оператор передаёт заявку в работу специалисту" style="rounded=1;whiteSpace=wrap;html=1;fontSize=12;glass=0;strokeWidth=1;shadow=0;fillColor=none;" parent="WIyWlLk6GJQsqaUBKTNV-1" vertex="1">
          <mxGeometry x="155" y="660" width="130" height="65" as="geometry" />
        </mxCell>
        <mxCell id="saAbReULlgdan71qu-na-4" style="edgeStyle=orthogonalEdgeStyle;rounded=0;orthogonalLoop=1;jettySize=auto;html=1;fillColor=none;" parent="WIyWlLk6GJQsqaUBKTNV-1" source="TQRET4Z9Z2pxtcugi2uB-25" target="TQRET4Z9Z2pxtcugi2uB-27" edge="1">
          <mxGeometry relative="1" as="geometry" />
        </mxCell>
        <mxCell id="TQRET4Z9Z2pxtcugi2uB-25" value="Спицеалист начинает работу" style="rounded=1;whiteSpace=wrap;html=1;fontSize=12;glass=0;strokeWidth=1;shadow=0;fillColor=none;" parent="WIyWlLk6GJQsqaUBKTNV-1" vertex="1">
          <mxGeometry x="151.25" y="750" width="137.5" height="65" as="geometry" />
        </mxCell>
        <mxCell id="TQRET4Z9Z2pxtcugi2uB-31" value="Нет" style="edgeStyle=orthogonalEdgeStyle;rounded=0;orthogonalLoop=1;jettySize=auto;html=1;exitX=0.5;exitY=1;exitDx=0;exitDy=0;fillColor=none;" parent="WIyWlLk6GJQsqaUBKTNV-1" source="TQRET4Z9Z2pxtcugi2uB-27" target="saAbReULlgdan71qu-na-5" edge="1">
          <mxGeometry x="-0.5005" y="-15" relative="1" as="geometry">
            <mxPoint x="224" y="1300" as="targetPoint" />
            <mxPoint as="offset" />
          </mxGeometry>
        </mxCell>
        <mxCell id="TQRET4Z9Z2pxtcugi2uB-27" value="Требуются доп.&lt;div&gt;комплектующие&lt;/div&gt;" style="rhombus;whiteSpace=wrap;html=1;shadow=0;fontFamily=Helvetica;fontSize=12;align=center;strokeWidth=1;spacing=6;spacingTop=-4;fillColor=none;" parent="WIyWlLk6GJQsqaUBKTNV-1" vertex="1">
          <mxGeometry x="135" y="850" width="170" height="80" as="geometry" />
        </mxCell>
        <mxCell id="TQRET4Z9Z2pxtcugi2uB-28" value="Специалист заказывает необходимые комплектующие" style="rounded=1;whiteSpace=wrap;html=1;fontSize=12;glass=0;strokeWidth=1;shadow=0;fillColor=none;" parent="WIyWlLk6GJQsqaUBKTNV-1" vertex="1">
          <mxGeometry x="-70" y="857.5" width="137.5" height="65" as="geometry" />
        </mxCell>
        <mxCell id="saAbReULlgdan71qu-na-6" style="edgeStyle=orthogonalEdgeStyle;rounded=0;orthogonalLoop=1;jettySize=auto;html=1;fillColor=none;" parent="WIyWlLk6GJQsqaUBKTNV-1" source="saAbReULlgdan71qu-na-5" target="TQRET4Z9Z2pxtcugi2uB-1" edge="1">
          <mxGeometry relative="1" as="geometry" />
        </mxCell>
        <mxCell id="saAbReULlgdan71qu-na-5" value="Специалист завершает работу" style="rounded=1;whiteSpace=wrap;html=1;fontSize=12;glass=0;strokeWidth=1;shadow=0;fillColor=none;" parent="WIyWlLk6GJQsqaUBKTNV-1" vertex="1">
          <mxGeometry x="151.25" y="1010" width="137.5" height="65" as="geometry" />
        </mxCell>
        <mxCell id="RW9_ckj8EUJ_n8NVfQkv-0" style="edgeStyle=orthogonalEdgeStyle;rounded=0;orthogonalLoop=1;jettySize=auto;html=1;exitX=0.5;exitY=1;exitDx=0;exitDy=0;entryX=0.5;entryY=0;entryDx=0;entryDy=0;fillColor=none;" parent="WIyWlLk6GJQsqaUBKTNV-1" source="TQRET4Z9Z2pxtcugi2uB-10" target="TQRET4Z9Z2pxtcugi2uB-12" edge="1">
          <mxGeometry relative="1" as="geometry">
            <mxPoint x="230" y="390" as="sourcePoint" />
            <mxPoint x="230" y="430" as="targetPoint" />
          </mxGeometry>
        </mxCell>
        <mxCell id="RW9_ckj8EUJ_n8NVfQkv-2" style="edgeStyle=orthogonalEdgeStyle;rounded=0;orthogonalLoop=1;jettySize=auto;html=1;exitX=0.5;exitY=1;exitDx=0;exitDy=0;entryX=0.5;entryY=0;entryDx=0;entryDy=0;fillColor=none;" parent="WIyWlLk6GJQsqaUBKTNV-1" source="TQRET4Z9Z2pxtcugi2uB-12" target="TQRET4Z9Z2pxtcugi2uB-13" edge="1">
          <mxGeometry relative="1" as="geometry">
            <mxPoint x="230" y="480" as="sourcePoint" />
            <mxPoint x="230" y="530" as="targetPoint" />
          </mxGeometry>
        </mxCell>
        <mxCell id="RW9_ckj8EUJ_n8NVfQkv-3" style="edgeStyle=orthogonalEdgeStyle;rounded=0;orthogonalLoop=1;jettySize=auto;html=1;exitX=0.5;exitY=1;exitDx=0;exitDy=0;entryX=0.5;entryY=0;entryDx=0;entryDy=0;fillColor=none;" parent="WIyWlLk6GJQsqaUBKTNV-1" source="TQRET4Z9Z2pxtcugi2uB-22" target="TQRET4Z9Z2pxtcugi2uB-25" edge="1">
          <mxGeometry relative="1" as="geometry">
            <mxPoint x="230" y="725" as="sourcePoint" />
            <mxPoint x="230" y="780" as="targetPoint" />
          </mxGeometry>
        </mxCell>
        <mxCell id="RW9_ckj8EUJ_n8NVfQkv-4" value="Да" style="edgeStyle=orthogonalEdgeStyle;rounded=0;orthogonalLoop=1;jettySize=auto;html=1;exitX=0;exitY=0.5;exitDx=0;exitDy=0;entryX=1;entryY=0.5;entryDx=0;entryDy=0;fillColor=none;" parent="WIyWlLk6GJQsqaUBKTNV-1" source="TQRET4Z9Z2pxtcugi2uB-27" target="TQRET4Z9Z2pxtcugi2uB-28" edge="1">
          <mxGeometry x="-0.5005" y="-15" relative="1" as="geometry">
            <mxPoint x="230" y="1020" as="targetPoint" />
            <mxPoint as="offset" />
            <mxPoint x="230" y="940" as="sourcePoint" />
          </mxGeometry>
        </mxCell>
        <mxCell id="RW9_ckj8EUJ_n8NVfQkv-5" value="" style="edgeStyle=orthogonalEdgeStyle;rounded=0;orthogonalLoop=1;jettySize=auto;html=1;exitX=0.5;exitY=1;exitDx=0;exitDy=0;entryX=0;entryY=0.5;entryDx=0;entryDy=0;fillColor=none;" parent="WIyWlLk6GJQsqaUBKTNV-1" source="TQRET4Z9Z2pxtcugi2uB-28" target="saAbReULlgdan71qu-na-5" edge="1">
          <mxGeometry x="-0.5005" y="-15" relative="1" as="geometry">
            <mxPoint x="78" y="900" as="targetPoint" />
            <mxPoint as="offset" />
            <mxPoint x="145" y="900" as="sourcePoint" />
          </mxGeometry>
        </mxCell>
        <mxCell id="J3_D9iLlANoo0SIfVdZq-1" value="" style="endArrow=none;html=1;rounded=0;exitX=0;exitY=0.5;exitDx=0;exitDy=0;fillColor=none;" parent="WIyWlLk6GJQsqaUBKTNV-1" source="WIyWlLk6GJQsqaUBKTNV-7" edge="1">
          <mxGeometry width="50" height="50" relative="1" as="geometry">
            <mxPoint x="200" y="220" as="sourcePoint" />
            <mxPoint x="220" y="280" as="targetPoint" />
          </mxGeometry>
        </mxCell>
      </root>
    </mxGraphModel>
  </diagram>
</mxfile>
